<svg data-v-0dd9719b="" version="1.0" xmlns="http://www.w3.org/2000/svg" xmlns:xlink="http://www.w3.org/1999/xlink" width="100%" height="100%" viewBox="0 0 340.000000 250.000000" preserveAspectRatio="xMidYMid meet" color-interpolation-filters="sRGB" style="margin: auto;"> <rect data-v-0dd9719b="" x="0" y="0" width="100%" height="100%" fill="#fff" fill-opacity="1" class="background"></rect> <rect data-v-0dd9719b="" x="0" y="0" width="100%" height="100%" fill="url(#watermark)" fill-opacity="1" class="watermarklayer"></rect> <g data-v-0dd9719b="" fill="#333" class="icon-text-wrapper icon-svg-group iconsvg" transform="translate(69.42000579833984,94.97748374938965)"><g class="iconsvg-imagesvg" transform="translate(0,0)"><g><rect fill="#333" fill-opacity="0" stroke-width="2" x="0" y="0" width="60" height="60.0450337753315" class="image-rect"></rect> <svg x="0" y="0" width="60" height="60.0450337753315" filtersec="colorsb1363375879" class="image-svg-svg primary" style="overflow: visible;"><svg xmlns="http://www.w3.org/2000/svg" viewBox="-0.00005833804243593477 -0.003611281979829073 107.92018127441406 108.00090789794922"><title>资源 22</title><path d="M33.28 91.66c-9.86 0-16.24-5.64-17-12.6-1-9.63 6-15.21 12.12-16.56 17.11-3.76 28.26-14.18 33.4-31 .49-1.62.76-3.3 1.26-4.91A14.54 14.54 0 0 1 77 16.11a14.84 14.84 0 0 1 14.14 10.12c2.86 8.29-2.71 17.25-11.47 19.15C62 49.2 50.81 60 45.9 77.36a34.57 34.57 0 0 1-1.9 6.13c-2.65 5.35-7.09 8.1-10.72 8.17z" fill="#5bebaf"></path><path d="M31 15.82a68 68 0 0 0 8.33-.07c3.42-.42 5.61-2.95 6.16-6.38.15-.9.19-1.82.35-2.71A7.75 7.75 0 0 1 53.36 0a8 8 0 0 1 3.72 15.2 6.71 6.71 0 0 1-2.62.66c-7.78.11-9.79 6.41-8.85 12a14.69 14.69 0 0 1-5.56 14.73 14.94 14.94 0 0 1-16.69 1.21A15.1 15.1 0 0 1 16 29.14c.87-6.44 5-11.29 11-12.78 1.31-.33 2.66-.52 4-.78z" fill="#40d7ff"></path><path d="M77.17 62.2A14.88 14.88 0 1 1 75 91.8a18.29 18.29 0 0 0-6.56.18c-4.24 1-6.07 3.39-6.37 7.76-.26 3.74-1.84 6.53-5.46 7.78a7.29 7.29 0 0 1-8.07-2 7.28 7.28 0 0 1-1.77-8.25c1.16-2.94 3.26-4.88 6.4-4.94 6.38-.1 9.83-4.11 9.44-10.33-.1-1.69-.22-3.39-.21-5.08A14.63 14.63 0 0 1 77.17 62.2z" fill="#6691ff"></path><path d="M107.92 54.18a7.93 7.93 0 1 1-15.86.08 7.93 7.93 0 1 1 15.86-.08z" fill="#40d7ff"></path><path d="M15.64 53.81A7.74 7.74 0 0 1 8 61.72a8 8 0 0 1-8-7.92 7.83 7.83 0 0 1 7.77-7.86 7.67 7.67 0 0 1 7.87 7.87z" fill="#5479dc"></path></svg></svg> <!----></g></g> <g transform="translate(67,4.087514877319336)"><g data-gra="path-name" fill-rule="" class="tp-name iconsvg-namesvg"><g transform="scale(1)"><g><path d="M2.21-44.72L2.21-46.02Q3.83-45.95 6.6-45.89 9.36-45.83 12.09-45.83L12.09-45.83Q15.21-45.83 18.14-45.89 21.06-45.95 22.3-45.95L22.3-45.95Q30.36-45.95 34.35-43.09 38.35-40.23 38.35-35.75L38.35-35.75Q38.35-33.48 36.98-31.14 35.62-28.8 32.76-26.98 29.9-25.16 25.35-24.31L25.35-24.31 25.35-24.18Q31.46-23.73 35.04-21.97 38.61-20.21 40.17-17.75 41.73-15.28 41.73-12.61L41.73-12.61Q41.73-6.5 36.95-3.25 32.18 0 23.79 0L23.79 0Q22.23 0 19.27-0.1 16.32-0.2 12.22-0.2L12.22-0.2Q9.36-0.2 6.6-0.16 3.83-0.13 2.21 0L2.21 0 2.21-1.3Q4.29-1.43 5.33-1.82 6.37-2.21 6.73-3.38 7.08-4.55 7.08-6.89L7.08-6.89 7.08-39.13Q7.08-41.54 6.73-42.67 6.37-43.81 5.3-44.23 4.23-44.66 2.21-44.72L2.21-44.72ZM21.45-44.72L21.45-44.72Q18.91-44.72 18.17-43.62 17.42-42.51 17.42-39.13L17.42-39.13 17.42-6.89Q17.42-3.51 18.27-2.5 19.11-1.5 21.91-1.5L21.91-1.5Q26.59-1.5 28.76-4.45 30.94-7.41 30.94-12.87L30.94-12.87Q30.94-17.88 28.44-20.61 25.94-23.34 20.15-23.34L20.15-23.34 14.63-23.34Q14.63-23.34 14.63-23.89 14.63-24.44 14.63-24.44L14.63-24.44 20.21-24.44Q23.27-24.44 24.89-25.9 26.52-27.37 27.17-29.8 27.82-32.24 27.82-35.04L27.82-35.04Q27.82-39.84 26.32-42.28 24.83-44.72 21.45-44.72ZM53.56-50.38L53.56-50.38Q56.29-50.38 57.88-49.04 59.47-47.71 59.47-45.37L59.47-45.37Q59.47-43.03 57.88-41.7 56.29-40.37 53.56-40.37L53.56-40.37Q50.83-40.37 49.24-41.7 47.64-43.03 47.64-45.37L47.64-45.37Q47.64-47.71 49.24-49.04 50.83-50.38 53.56-50.38ZM58.63-34.32L58.63-34.32 58.63-6.04Q58.63-3.31 59.57-2.34 60.52-1.36 62.79-1.36L62.79-1.36 62.79 0Q61.62-0.07 59.15-0.16 56.68-0.26 54.14-0.26L54.14-0.26Q51.61-0.26 49.01-0.16 46.41-0.07 45.11 0L45.11 0 45.11-1.36Q47.38-1.36 48.33-2.34 49.27-3.31 49.27-6.04L49.27-6.04 49.27-26.52Q49.27-29.45 48.39-30.84 47.52-32.24 45.11-32.24L45.11-32.24 45.11-33.61Q47.19-33.41 49.14-33.41L49.14-33.41Q51.87-33.41 54.24-33.64 56.61-33.87 58.63-34.32ZM87.88-34.52L87.88-34.52Q92.95-34.52 96.3-30.39 99.65-26.26 99.65-17.68L99.65-17.68Q99.65-10.92 97.6-6.83 95.55-2.73 92.17-0.91 88.79 0.91 84.76 0.91L84.76 0.91Q82.09 0.91 79.82 0 77.55-0.91 75.92-2.99L75.92-2.99 76.83-3.31Q78-1.89 79.59-1.17 81.19-0.46 82.75-0.46L82.75-0.46Q86.32-0.46 88.08-4.49 89.83-8.52 89.83-16.77L89.83-16.77Q89.83-22.36 89.15-25.64 88.47-28.93 87.17-30.32 85.87-31.72 84.05-31.72L84.05-31.72Q81.77-31.72 79.89-29.87 78-28.02 77.74-24.7L77.74-24.7 77.42-26.98Q78.59-30.68 81.38-32.6 84.18-34.52 87.88-34.52ZM77.94-50.83L77.94-50.83 77.94-1.3Q76.31-1.56 74.62-1.3 72.93-1.04 71.5-0.42 70.07 0.2 69.09 1.04L69.09 1.04 68.12 0.46Q68.38-0.46 68.48-1.36 68.58-2.27 68.58-3.19L68.58-3.19 68.58-43.03Q68.58-45.95 67.7-47.35 66.82-48.75 64.42-48.75L64.42-48.75 64.42-50.12Q66.5-49.92 68.45-49.92L68.45-49.92Q71.11-49.92 73.52-50.15 75.92-50.38 77.94-50.83ZM120.45-34.52L120.45-34.52Q125.19-34.52 128.77-32.76 132.34-31.01 134.36-27.11 136.37-23.21 136.37-16.77L136.37-16.77Q136.37-10.34 134.36-6.47 132.34-2.6 128.77-0.84 125.19 0.91 120.45 0.91L120.45 0.91Q115.83 0.91 112.22-0.84 108.62-2.6 106.57-6.47 104.52-10.34 104.52-16.77L104.52-16.77Q104.52-23.21 106.57-27.11 108.62-31.01 112.22-32.76 115.83-34.52 120.45-34.52ZM120.45-33.22L120.45-33.22Q117.85-33.22 116.09-29.35 114.34-25.48 114.34-16.77L114.34-16.77Q114.34-8.06 116.09-4.23 117.85-0.39 120.45-0.39L120.45-0.39Q123.11-0.39 124.83-4.23 126.56-8.06 126.56-16.77L126.56-16.77Q126.56-25.48 124.83-29.35 123.11-33.22 120.45-33.22Z" transform="translate(-2.2100000381469727, 50.83000183105469)"></path></g> <!----> <!----> <!----> <!----> <!----> <!----> <!----></g></g> <!----></g></g><defs v-gra="od"></defs></svg>